name Walk7.mot
datacolumns 19
datarows 20
range 2.01200000 2.03100000
endheader

                time	   L_ground_force_vx	   L_ground_force_vy	   L_ground_force_vz	   L_ground_force_px	   L_ground_force_py	   L_ground_force_pz	   R_ground_force_vx	   R_ground_force_vy	   R_ground_force_vz	   R_ground_force_px	   R_ground_force_py	   R_ground_force_pz	   L_ground_torque_x	   L_ground_torque_y	   L_ground_torque_z	   R_ground_torque_x	   R_ground_torque_y	   R_ground_torque_z	
          2.01200000	         23.14742312	        684.58383011	         41.57811760	         -0.31919500	          0.00000000	         -0.07999537	          0.00154347	          0.06789181	          0.01112337	          0.00006607	          0.00000000	          0.00002109	          0.00000000	          1.34833703	          0.00000000	          0.00000000	         -0.00236552	          0.00000000	
          2.01300000	         23.40822473	        685.41125799	         41.65839864	         -0.31878349	          0.00000000	         -0.08004605	          0.00119767	          0.07485543	          0.01205138	          0.00007086	          0.00000000	          0.00002256	          0.00000000	          1.35997222	          0.00000000	          0.00000000	         -0.00248468	          0.00000000	
          2.01400000	         23.66914913	        686.23676411	         41.73940413	         -0.31837027	          0.00000000	         -0.08009718	          0.00081480	          0.08215699	          0.01301586	          0.00007580	          0.00000000	          0.00002407	          0.00000000	          1.37179515	          0.00000000	          0.00000000	         -0.00260466	          0.00000000	
          2.01500000	         23.93014663	        687.06000818	         41.82107182	         -0.31795533	          0.00000000	         -0.08014877	          0.00039299	          0.08979775	          0.01401620	          0.00008089	          0.00000000	          0.00002562	          0.00000000	          1.38380010	          0.00000000	          0.00000000	         -0.00272503	          0.00000000	
          2.01600000	         24.19116896	        687.88066491	         41.90333951	         -0.31753865	          0.00000000	         -0.08020081	         -0.00006965	          0.09777767	          0.01505162	          0.00008612	          0.00000000	          0.00002720	          0.00000000	          1.39598089	          0.00000000	          0.00000000	         -0.00284534	          0.00000000	
          2.01700000	         24.45216955	        688.69842652	         41.98614465	         -0.31712023	          0.00000000	         -0.08025329	         -0.00057498	          0.10609531	          0.01612109	          0.00009147	          0.00000000	          0.00002883	          0.00000000	          1.40833095	          0.00000000	          0.00000000	         -0.00296507	          0.00000000	
          2.01800000	         24.71310389	        689.51300442	         42.06942397	         -0.31670006	          0.00000000	         -0.08030620	         -0.00112491	          0.11474771	          0.01722336	          0.00009695	          0.00000000	          0.00003048	          0.00000000	          1.42084327	          0.00000000	          0.00000000	         -0.00308368	          0.00000000	
          2.01900000	         24.97392998	        690.32412979	         42.15311302	         -0.31627811	          0.00000000	         -0.08035954	         -0.00172128	          0.12373023	          0.01835694	          0.00010254	          0.00000000	          0.00003216	          0.00000000	          1.43351050	          0.00000000	          0.00000000	         -0.00320058	          0.00000000	
          2.02000000	         25.23460868	        691.13155326	         42.23714576	         -0.31585438	          0.00000000	         -0.08041329	         -0.00236597	          0.13303646	          0.01952003	          0.00010822	          0.00000000	          0.00003387	          0.00000000	          1.44632502	          0.00000000	          0.00000000	         -0.00331512	          0.00000000	
          2.02100000	         25.49510399	        691.93504356	         42.32145421	         -0.31542885	          0.00000000	         -0.08046743	         -0.00306079	          0.14265805	          0.02071059	          0.00011398	          0.00000000	          0.00003559	          0.00000000	          1.45927914	          0.00000000	          0.00000000	         -0.00342662	          0.00000000	
          2.02200000	         25.75538303	        692.73438546	         42.40596820	         -0.31500150	          0.00000000	         -0.08052196	         -0.00380754	          0.15258455	          0.02192625	          0.00011981	          0.00000000	          0.00003733	          0.00000000	          1.47236530	          0.00000000	          0.00000000	         -0.00353433	          0.00000000	
          2.02300000	         26.01541574	        693.52937735	         42.49061535	         -0.31457232	          0.00000000	         -0.08057686	         -0.00460796	          0.16280331	          0.02316433	          0.00012568	          0.00000000	          0.00003907	          0.00000000	          1.48557621	          0.00000000	          0.00000000	         -0.00363744	          0.00000000	
          2.02400000	         26.27517445	        694.31982891	         42.57532138	         -0.31414130	          0.00000000	         -0.08063212	         -0.00546372	          0.17329930	          0.02442178	          0.00013158	          0.00000000	          0.00004082	          0.00000000	          1.49890496	          0.00000000	          0.00000000	         -0.00373512	          0.00000000	
          2.02500000	         26.53463338	        695.10555953	         42.66001055	         -0.31370844	          0.00000000	         -0.08068774	         -0.00637644	          0.18405490	          0.02569522	          0.00013749	          0.00000000	          0.00004256	          0.00000000	          1.51234498	          0.00000000	          0.00000000	         -0.00382645	          0.00000000	
          2.02600000	         26.79376826	        695.88639761	         42.74460637	         -0.31327372	          0.00000000	         -0.08074371	         -0.00734765	          0.19504985	          0.02698088	          0.00014337	          0.00000000	          0.00004428	          0.00000000	          1.52588992	          0.00000000	          0.00000000	         -0.00391046	          0.00000000	
          2.02700000	         27.05255613	        696.66218131	         42.82903220	         -0.31283716	          0.00000000	         -0.08080003	         -0.00837875	          0.20626096	          0.02827458	          0.00014922	          0.00000000	          0.00004598	          0.00000000	          1.53953352	          0.00000000	          0.00000000	         -0.00398613	          0.00000000	
          2.02800000	         27.31097536	        697.43276074	         42.91321191	         -0.31239877	          0.00000000	         -0.08085670	         -0.00947107	          0.21766203	          0.02957173	          0.00015498	          0.00000000	          0.00004765	          0.00000000	          1.55326945	          0.00000000	          0.00000000	         -0.00405237	          0.00000000	
          2.02900000	         27.56900577	        698.19800148	         42.99707026	         -0.31195854	          0.00000000	         -0.08091372	         -0.01062578	          0.22922361	          0.03086728	          0.00016065	          0.00000000	          0.00004928	          0.00000000	          1.56709137	          0.00000000	          0.00000000	         -0.00410803	          0.00000000	
          2.03000000	         27.82662883	        698.95778858	         43.08053333	         -0.31151650	          0.00000000	         -0.08097109	         -0.01184390	          0.24091289	          0.03215575	          0.00016617	          0.00000000	          0.00005086	          0.00000000	          1.58099300	          0.00000000	          0.00000000	         -0.00415189	          0.00000000	
          2.03100000	         28.08382780	        699.71203015	         43.16352880	         -0.31107265	          0.00000000	         -0.08102882	         -0.01312631	          0.25269344	          0.03343114	          0.00017153	          0.00000000	          0.00005237	          0.00000000	          1.59496831	          0.00000000	          0.00000000	         -0.00418268	          0.00000000	
